<svg width="19" height="20" viewBox="0 0 19 20" fill="none" xmlns="http://www.w3.org/2000/svg">
<g opacity="0.4">
<path d="M11.0187 3.28144C9.95013 3.11277 8.9095 3.7478 8.72097 4.7045L7.75194 9.62406L5.75356 9.93941C5.43561 8.87125 4.25203 8.18025 3.01325 8.37585C1.7052 8.58251 0.831972 9.69888 1.06245 10.8699C1.29321 12.0408 2.54034 12.8228 3.84863 12.6164C4.74632 12.4746 5.43911 11.9041 5.71089 11.1818L8.1584 10.7954L7.72679 12.9862C6.92008 13.2296 6.28276 13.8498 6.12429 14.6533C5.89369 15.8245 6.76716 16.9408 8.07504 17.1474C9.3833 17.3539 10.6305 16.572 10.8612 15.4012C11.0796 14.2923 10.3077 13.2328 9.11459 12.948L9.46686 11.1591L14.962 10.2916C16.0309 10.1229 16.7401 9.19124 16.5517 8.23462L9.83406 9.2953L11.0187 3.28144ZM4.32 11.2853C3.83313 11.7211 3.0437 11.7211 2.55684 11.2853C2.06997 10.8494 2.06999 10.1427 2.55684 9.70689C3.04381 9.27094 3.83313 9.27104 4.32 9.70689C4.80687 10.1427 4.80698 10.8493 4.32 11.2853ZM9.3744 15.81C8.88754 16.2459 8.09811 16.2459 7.61124 15.81C7.12437 15.3742 7.12437 14.6675 7.61124 14.2316C8.09822 13.7957 8.88754 13.7958 9.3744 14.2316C9.86125 14.6675 9.86138 15.3741 9.3744 15.81Z" fill="black"/>
</g>
</svg>
