<svg width="124" height="120" viewBox="0 0 124 120" fill="none" xmlns="http://www.w3.org/2000/svg">
<path d="M49.5271 47.1427L57.6471 54.9203L74.2906 39.2288" stroke="black" stroke-width="1.5" stroke-linecap="round" stroke-linejoin="round"/>
<path d="M12.0913 58.6362V17.4303C12.0913 15.5407 13.6231 14.0089 15.5127 14.0089H108.046C109.936 14.0089 111.468 15.5407 111.468 17.4303V58.6362" stroke="#CCCCCC" stroke-width="1.5"/>
<path d="M54.6306 87.4548L55.0152 88.0987L55.0207 88.0954L54.6306 87.4548ZM69.1046 87.4548L68.7145 88.0954L68.7198 88.0985L69.1046 87.4548ZM119.821 53.4887L120.238 54.1118L119.821 53.4887ZM119.862 47.8309L119.435 48.4479L119.862 47.8309ZM59.6573 1.8706L59.1728 1.29811L59.6573 1.8706ZM64.0779 1.87061L64.5624 1.29811L64.0779 1.87061ZM4.10439 53.5278L4.52249 52.9051L4.10439 53.5278ZM63.6473 84.131L64.0375 83.4905L63.6473 84.131ZM5.96658 117.392L55.0152 88.0987L54.246 86.8109L5.19746 116.104L5.96658 117.392ZM55.0207 88.0954L60.478 84.7715L59.6978 83.4905L54.2405 86.8143L55.0207 88.0954ZM3.6863 54.1504L54.2125 88.0775L55.0487 86.8322L4.52249 52.9051L3.6863 54.1504ZM63.2572 84.7715L68.7145 88.0954L69.4948 86.8143L64.0375 83.4905L63.2572 84.7715ZM68.7198 88.0985L117.857 117.476L118.626 116.189L69.4895 86.8111L68.7198 88.0985ZM69.522 88.078L120.238 54.1118L119.403 52.8655L68.6873 86.8317L69.522 88.078ZM11.4792 41.6655L3.58992 47.2909L4.46077 48.5122L12.35 42.8869L11.4792 41.6655ZM120.288 47.2138L112.247 41.6591L111.394 42.8933L119.435 48.4479L120.288 47.2138ZM59.1728 1.29811L44.8792 13.3951L45.8482 14.5401L60.1418 2.4431L59.1728 1.29811ZM78.856 13.3951L64.5624 1.29811L63.5934 2.4431L77.887 14.5401L78.856 13.3951ZM119.19 50.6897V112.994H120.69V50.6897H119.19ZM114.292 117.613H9.61993V119.113H114.292V117.613ZM4.72153 112.994V50.7718H3.22153V112.994H4.72153ZM9.61993 117.613C6.87827 117.613 4.72153 115.51 4.72153 112.994H3.22153C3.22153 116.409 6.12254 119.113 9.61993 119.113V117.613ZM119.19 112.994C119.19 115.51 117.033 117.613 114.292 117.613V119.113C117.789 119.113 120.69 116.409 120.69 112.994H119.19ZM120.238 54.1118C122.684 52.4739 122.71 48.8867 120.288 47.2138L119.435 48.4479C120.986 49.5193 120.97 51.8166 119.403 52.8655L120.238 54.1118ZM60.1418 2.4431C61.1379 1.60009 62.5973 1.60009 63.5934 2.4431L64.5624 1.29811C63.007 -0.0182487 60.7282 -0.0182516 59.1728 1.29811L60.1418 2.4431ZM4.52249 52.9051C2.9728 51.8645 2.94092 49.5959 4.46077 48.5122L3.58992 47.2909C1.21668 48.9831 1.26645 52.5255 3.6863 54.1504L4.52249 52.9051ZM60.478 84.7715C61.3315 84.2517 62.4037 84.2517 63.2572 84.7715L64.0375 83.4905C62.7048 82.6788 61.0305 82.6788 59.6978 83.4905L60.478 84.7715Z" fill="#CCCCCC"/>
</svg>
