<svg width="12" height="13" viewBox="0 0 12 13" fill="none" xmlns="http://www.w3.org/2000/svg">
<g opacity="0.4">
<path d="M10.1077 2.08394C9.91589 1.87827 9.60465 1.87827 9.41283 2.08394L1.42499 10.6379C1.23301 10.8434 1.23301 11.1764 1.42499 11.3819C1.52094 11.4847 1.64675 11.5362 1.77247 11.5362C1.8982 11.5362 2.024 11.4847 2.11987 11.3819L10.1077 2.82798C10.2997 2.62248 10.2997 2.28944 10.1077 2.08394Z" fill="black" stroke="black" stroke-width="0.3"/>
<path d="M2.864 1.13281C1.57697 1.13281 0.529785 2.2543 0.529785 3.63253C0.529785 5.01076 1.57697 6.13217 2.864 6.13217C4.1511 6.13217 5.19821 5.01068 5.19821 3.63245C5.19821 2.25421 4.15102 1.13281 2.864 1.13281ZM2.864 5.07961C2.11881 5.07961 1.5126 4.43036 1.5126 3.63245C1.5126 2.83454 2.11889 2.18528 2.864 2.18528C3.60918 2.18528 4.21539 2.83454 4.21539 3.63245C4.21539 4.43036 3.60918 5.07961 2.864 5.07961Z" fill="black" stroke="black" stroke-width="0.3"/>
<path d="M8.66576 7.33789C7.37874 7.33789 6.33154 8.45929 6.33154 9.83752C6.33154 11.2158 7.37874 12.3372 8.66576 12.3372C9.95279 12.3372 11 11.2158 11 9.83752C11 8.4592 9.95279 7.33789 8.66576 7.33789ZM8.66576 11.2846C7.92057 11.2846 7.31436 10.6353 7.31436 9.83744C7.31436 9.03953 7.92066 8.39027 8.66576 8.39027C9.41087 8.39027 10.0172 9.03953 10.0172 9.83744C10.0172 10.6353 9.41095 11.2846 8.66576 11.2846Z" fill="black" stroke="black" stroke-width="0.3"/>
</g>
</svg>
