<svg width="42" height="84" viewBox="0 0 42 84" fill="none" xmlns="http://www.w3.org/2000/svg">
<path d="M4.74533 68.7662C7.34286 68.7662 9.42088 66.6557 9.42088 64.0906C9.42088 61.4931 7.34286 59.4151 4.74533 59.4151C2.18027 59.4151 0.0697778 61.4931 0.0697778 64.0906C0.0697778 66.6557 2.18027 68.7662 4.74533 68.7662ZM4.74533 32.7904C7.34286 32.7904 9.42088 30.6799 9.42088 28.1148C9.42088 25.5173 7.34286 23.4393 4.74533 23.4393C2.18027 23.4393 0.0697778 25.5173 0.0697778 28.1148C0.0697778 30.6799 2.18027 32.7904 4.74533 32.7904ZM25.2635 41.9467C25.2635 57.4994 29.3547 71.3312 36.6927 83.5072H41.9527C35.6537 73.3443 31.2379 56.9149 31.2379 41.9467C31.2379 27.0109 35.6212 10.5815 41.9527 0.3862H36.6927C29.3547 12.4972 25.2635 26.3615 25.2635 41.9467Z" fill="black"/>
</svg>
