<svg width="20" height="20" viewBox="0 0 20 20" fill="none" xmlns="http://www.w3.org/2000/svg">
<path d="M12.1432 4.30483V0.714096C12.1434 0.31959 12.4632 -0.000125522 12.8577 3.69696e-08C13.0601 4.189e-05 13.2528 0.0859243 13.3883 0.236218L19.8169 7.37915C20.052 7.64098 20.0614 8.03498 19.839 8.30774L13.4104 16.1649C13.1606 16.4703 12.7106 16.5153 12.4052 16.2655C12.2398 16.1302 12.1437 15.9279 12.1432 15.7142V12.1549C6.5003 12.3385 2.97886 14.7506 1.39167 19.5121C1.29432 19.8034 1.02164 19.9998 0.714525 20C0.67602 20.0001 0.637516 19.997 0.599514 19.9907C0.253975 19.9343 0.000219345 19.6358 0.000219345 19.2857C0.000261307 10.8742 5.06386 4.69482 12.1432 4.30483Z" fill="#F2F2F2"/>
</svg>
