<svg width="189" height="135" viewBox="0 0 189 135" fill="none" xmlns="http://www.w3.org/2000/svg">
<path d="M13.4626 123.863C17.4814 131.355 26.0107 134.571 26.0107 134.571C26.0107 134.571 28.0242 125.641 24.0055 118.149C19.9867 110.657 11.4574 107.441 11.4574 107.441C11.4574 107.441 9.44386 116.372 13.4626 123.863Z" fill="black"/>
<path d="M16.2247 121.399C23.4803 125.787 26.2746 134.502 26.2746 134.502C26.2746 134.502 17.3054 136.104 10.0499 131.716C2.79434 127.328 0 118.612 0 118.612C0 118.612 8.96921 117.011 16.2247 121.399Z" fill="#808080"/>
<path d="M117.073 120.433H40.5078V119.879H116.522V93.0245H46.9445L43.5644 85.9461L44.0611 85.7065L47.2911 92.4706H117.073V120.433Z" fill="#2F2E41"/>
<path d="M50.698 133.999C53.8922 133.999 56.4817 131.396 56.4817 128.185C56.4817 124.974 53.8922 122.371 50.698 122.371C47.5037 122.371 44.9142 124.974 44.9142 128.185C44.9142 131.396 47.5037 133.999 50.698 133.999Z" fill="black"/>
<path d="M107.709 133.999C110.903 133.999 113.493 131.396 113.493 128.185C113.493 124.974 110.903 122.371 107.709 122.371C104.515 122.371 101.925 124.974 101.925 128.185C101.925 131.396 104.515 133.999 107.709 133.999Z" fill="black"/>
<path d="M174.91 8.30803C176.888 8.30803 178.491 6.69667 178.491 4.70895C178.491 2.72123 176.888 1.10986 174.91 1.10986C172.933 1.10986 171.33 2.72123 171.33 4.70895C171.33 6.69667 172.933 8.30803 174.91 8.30803Z" fill="black"/>
<path d="M125.262 83.8885H39.2023L20.5809 22.7041H144.44L144.327 23.0641L125.262 83.8885ZM39.6098 83.3348H124.858L143.689 23.2578H21.3254L39.6098 83.3348Z" fill="#2F2E41"/>
<path d="M118.545 80.7046H42.9549L26.599 26.4414H135.388L135.289 26.7609L118.545 80.7046Z" fill="#F2F2F2"/>
<path d="M145.983 17.2379L145.45 17.0958L149.085 3.32422H170.229V3.87808H149.509L145.983 17.2379Z" fill="#2F2E41"/>
<path d="M138.25 41.2529H26.5985V41.8067H138.25V41.2529Z" fill="#2F2E41"/>
<path d="M131.856 61.6528H32.8071V62.2065H131.856V61.6528Z" fill="#2F2E41"/>
<path d="M82.7841 22.981H82.2332V83.6117H82.7841V22.981Z" fill="#2F2E41"/>
<path d="M107.446 22.9636L103.492 83.5928L104.041 83.629L107.995 22.9998L107.446 22.9636Z" fill="#2F2E41"/>
<path d="M57.5831 22.963L57.0333 22.999L60.9644 83.6297L61.5142 83.5937L57.5831 22.963Z" fill="#2F2E41"/>
<path d="M188.515 134.35H0V135H188.515V134.35Z" fill="#2F2E41"/>
</svg>
