<svg width="17" height="16" viewBox="0 0 17 16" fill="none" xmlns="http://www.w3.org/2000/svg">
<g clip-path="url(#clip0)">
<path d="M15.4354 9.26113C15.9127 5.24309 15.2061 2.7064 13.9314 1.55905L13.932 1.55839C11.8747 -0.400964 4.92663 -0.690967 2.46527 1.64639C1.35993 2.78973 0.970589 4.46775 0.927922 6.5451C0.885254 8.62312 0.834587 12.5158 4.46195 13.5718H4.46529L4.46195 15.1845C4.46195 15.1845 4.43729 15.8379 4.85462 15.9692C5.33196 16.1239 5.54796 15.8205 7.03265 14.0472C9.51534 14.2625 11.422 13.7692 11.6387 13.6972C12.14 13.5292 14.9767 13.1538 15.4354 9.26113ZM7.27731 12.9125C7.27731 12.9125 5.70597 14.8718 5.2173 15.3805C5.05729 15.5459 4.88196 15.5305 4.88463 15.2025C4.88463 14.9872 4.89663 12.5252 4.89663 12.5252C1.82126 11.6438 2.0026 8.32912 2.03593 6.5951C2.06927 4.86042 2.3866 3.43974 3.32261 2.48306C5.48196 0.458378 11.5734 0.911049 13.1254 2.36973C15.0227 4.05174 14.3474 8.80379 14.3514 8.96579C13.9614 12.2152 11.6627 12.4212 11.24 12.5618C11.0593 12.6218 9.38267 13.0532 7.27731 12.9125V12.9125Z" fill="black"/>
<path d="M8.14856 2.86426C7.89189 2.86426 7.89189 3.26426 8.14856 3.26759C10.1399 3.28293 11.7799 4.67094 11.7979 7.21697C11.7979 7.48563 12.1913 7.4823 12.1879 7.21363H12.1873C12.1659 4.47027 10.3752 2.87959 8.14856 2.86426V2.86426Z" fill="black"/>
<path d="M10.7675 6.79538C10.7615 7.06072 11.1542 7.07339 11.1575 6.80472C11.1902 5.29204 10.2575 4.04603 8.50479 3.91469C8.24812 3.89602 8.22145 4.29936 8.47746 4.31803C9.99748 4.43336 10.7982 5.47071 10.7675 6.79538V6.79538Z" fill="black"/>
<path d="M10.3478 8.51644C10.0185 8.32578 9.68318 8.44444 9.54451 8.63178L9.25451 9.00712C9.10717 9.19778 8.83184 9.17245 8.83184 9.17245C6.82249 8.64111 6.28515 6.53843 6.28515 6.53843C6.28515 6.53843 6.26048 6.25376 6.44449 6.10109L6.80716 5.80109C6.98849 5.65708 7.10316 5.31041 6.91849 4.96974C6.42515 4.0784 6.09382 3.77107 5.92515 3.53506C5.74781 3.31306 5.48114 3.26306 5.20381 3.41306H5.19781C4.62114 3.7504 3.9898 4.38174 4.1918 5.03174C4.53647 5.71708 5.16981 7.90177 7.18849 9.55245C8.13717 10.3331 9.63851 11.1331 10.2758 11.3178L10.2818 11.3271C10.9099 11.5365 11.5205 10.8805 11.8465 10.2865V10.2818C11.9912 9.99446 11.9432 9.72246 11.7319 9.54445C11.3572 9.17912 10.7919 8.77578 10.3478 8.51644Z" fill="black"/>
<path d="M8.77891 5.40181C9.41959 5.43915 9.73026 5.77382 9.7636 6.46116C9.7756 6.72983 10.1656 6.71116 10.1536 6.44249C10.1109 5.54515 9.64293 5.04514 8.80025 4.99847C8.54358 4.98314 8.51957 5.38648 8.77891 5.40181V5.40181Z" fill="black"/>
</g>
<defs>
<clipPath id="clip0">
<rect width="16.0002" height="16.0002" fill="white" transform="translate(0.00146484)"/>
</clipPath>
</defs>
</svg>
